<?xml version="1.0" encoding="utf-8"?>
<!-- Generator: Adobe Illustrator 27.5.0, SVG Export Plug-In . SVG Version: 6.00 Build 0)  -->
<svg version="1.1" id="Layer_1" xmlns="http://www.w3.org/2000/svg" xmlns:xlink="http://www.w3.org/1999/xlink" x="0px" y="0px"
	 viewBox="0 0 1200 1000" style="enable-background:new 0 0 1200 1000;" xml:space="preserve">
<radialGradient id="SVGID_1_" cx="600" cy="500" r="552.2681" gradientUnits="userSpaceOnUse">
	<stop  offset="0" style="stop-color:#FFFFFF"/>
	<stop  offset="0.0973" style="stop-color:#EEEFF0"/>
	<stop  offset="0.3875" style="stop-color:#C0C3C9"/>
	<stop  offset="0.6451" style="stop-color:#9EA3AC"/>
	<stop  offset="0.8581" style="stop-color:#89909A"/>
	<stop  offset="1" style="stop-color:#828994"/>
</radialGradient>
<rect style="fill:url(#SVGID_1_);" width="1200" height="1000"/>
<g>
	<g>
		<path style="opacity:0;fill:#999999;" d="M236.977,167H984.25c6.489,0,11.75,5.261,11.75,11.75v676.5
			c0,6.489-5.261,11.75-11.75,11.75H236.977c-6.489,0-11.75-5.261-11.75-11.75v-676.5C225.227,172.261,230.488,167,236.977,167z"/>
		<path style="opacity:0.0081;fill:#989898;" d="M237.343,167.428h746.541c6.437,0,11.654,5.349,11.654,11.786v675.819
			c0,6.437-5.346,11.655-11.783,11.655H237.343c-6.437,0-11.655-5.346-11.655-11.782V179.21
			C225.689,172.773,230.907,167.428,237.343,167.428z"/>
		<path style="opacity:0.0163;fill:#979797;" d="M237.709,167.855h745.809c6.384,0,11.559,5.438,11.559,11.822v675.138
			c0,6.384-5.432,11.559-11.816,11.559H237.709c-6.384,0-11.559-5.431-11.559-11.815V179.67
			C226.15,173.286,231.326,167.855,237.709,167.855z"/>
		<path style="opacity:0.0244;fill:#969696;" d="M238.075,168.283h745.077c6.331,0,11.464,5.526,11.464,11.857v674.457
			c0,6.331-5.518,11.463-11.849,11.463H238.075c-6.331,0-11.463-5.516-11.463-11.847V180.13
			C226.612,173.799,231.744,168.283,238.075,168.283z"/>
		<path style="opacity:0.0325;fill:#959595;" d="M238.441,168.71h744.345c6.278,0,11.368,5.615,11.368,11.893v673.776
			c0,6.278-5.603,11.368-11.882,11.368H238.441c-6.278,0-11.368-5.601-11.368-11.879V180.59
			C227.073,174.311,232.163,168.71,238.441,168.71z"/>
		<path style="opacity:0.0406;fill:#949494;" d="M238.807,169.138H982.42c6.225,0,11.272,5.703,11.272,11.929v673.095
			c0,6.226-5.689,11.272-11.915,11.272h-742.97c-6.226,0-11.272-5.686-11.272-11.912V181.049
			C227.535,174.824,232.582,169.138,238.807,169.138z"/>
		<path style="opacity:0.0488;fill:#939393;" d="M239.173,169.565h742.881c6.173,0,11.177,5.792,11.177,11.964v672.414
			c0,6.173-5.775,11.177-11.948,11.177h-742.11c-6.173,0-11.177-5.771-11.177-11.944V181.509
			C227.996,175.337,233,169.565,239.173,169.565z"/>
		<path style="opacity:0.0569;fill:#929292;" d="M239.539,169.993h742.149c6.12,0,11.081,5.88,11.081,12v671.733
			c0,6.12-5.861,11.081-11.981,11.081H239.539c-6.12,0-11.081-5.856-11.081-11.976V181.969
			C228.458,175.849,233.419,169.993,239.539,169.993z"/>
		<path style="opacity:0.065;fill:#919191;" d="M239.905,170.421h741.417c6.067,0,10.986,5.969,10.986,12.036v671.052
			c0,6.067-5.946,10.986-12.014,10.986H239.905c-6.067,0-10.986-5.941-10.986-12.008V182.429
			C228.919,176.362,233.838,170.421,239.905,170.421z"/>
		<path style="opacity:0.0732;fill:#909090;" d="M240.271,170.848h740.685c6.015,0,10.89,6.057,10.89,12.072v670.371
			c0,6.015-6.032,10.89-12.047,10.89H240.271c-6.015,0-10.89-6.026-10.89-12.041V182.889
			C229.381,176.875,234.257,170.848,240.271,170.848z"/>
		<path style="opacity:0.0813;fill:#8F8F8F;" d="M240.637,171.276H980.59c5.962,0,10.795,6.146,10.795,12.107v669.69
			c0,5.962-6.118,10.795-12.079,10.795H240.637c-5.962,0-10.795-6.111-10.795-12.073V183.349
			C229.842,177.387,234.675,171.276,240.637,171.276z"/>
		<path style="opacity:0.0894;fill:#8E8E8E;" d="M241.003,171.703h739.221c5.909,0,10.699,6.234,10.699,12.143v669.009
			c0,5.909-6.203,10.699-12.112,10.699H241.003c-5.909,0-10.699-6.196-10.699-12.105v-667.64
			C230.304,177.9,235.094,171.703,241.003,171.703z"/>
		<path style="opacity:0.0976;fill:#8D8D8D;" d="M241.369,172.131h738.489c5.856,0,10.604,6.323,10.604,12.179v668.328
			c0,5.856-6.289,10.604-12.145,10.604H241.369c-5.856,0-10.604-6.281-10.604-12.138V184.269
			C230.766,178.413,235.513,172.131,241.369,172.131z"/>
		<path style="opacity:0.1057;fill:#8C8C8C;" d="M241.735,172.558h737.757c5.803,0,10.508,6.411,10.508,12.214V852.42
			c0,5.803-6.375,10.508-12.178,10.508H241.735c-5.803,0-10.508-6.367-10.508-12.17V184.729
			C231.227,178.925,235.932,172.558,241.735,172.558z"/>
		<path style="opacity:0.1138;fill:#8B8B8B;" d="M242.101,172.986h737.025c5.751,0,10.413,6.5,10.413,12.25v666.966
			c0,5.751-6.461,10.413-12.211,10.413H242.101c-5.751,0-10.413-6.452-10.413-12.202V185.189
			C231.689,179.438,236.35,172.986,242.101,172.986z"/>
		<path style="opacity:0.122;fill:#8B8A8A;" d="M242.467,173.413H978.76c5.698,0,10.317,6.588,10.317,12.286v666.285
			c0,5.698-6.546,10.317-12.244,10.317H242.467c-5.698,0-10.317-6.537-10.317-12.235V185.649
			C232.15,179.951,236.769,173.413,242.467,173.413z"/>
		<path style="opacity:0.1301;fill:#8A8989;" d="M242.833,173.841h735.561c5.645,0,10.222,6.676,10.222,12.322v665.604
			c0,5.645-6.632,10.222-12.277,10.222H242.833c-5.645,0-10.222-6.622-10.222-12.267V186.109
			C232.612,180.463,237.188,173.841,242.833,173.841z"/>
		<path style="opacity:0.1382;fill:#898888;" d="M243.199,174.268h734.829c5.592,0,10.126,6.765,10.126,12.358v664.923
			c0,5.593-6.718,10.126-12.31,10.126H243.199c-5.592,0-10.126-6.707-10.126-12.299V186.568
			C233.073,180.976,237.607,174.268,243.199,174.268z"/>
		<path style="opacity:0.1463;fill:#888787;" d="M243.565,174.696h734.097c5.54,0,10.031,6.854,10.031,12.393v664.242
			c0,5.54-6.803,10.031-12.343,10.031H243.565c-5.54,0-10.031-6.792-10.031-12.332V187.028
			C233.535,181.489,238.025,174.696,243.565,174.696z"/>
		<path style="opacity:0.1545;fill:#878686;" d="M243.931,175.124h733.365c5.487,0,9.935,6.942,9.935,12.429v663.561
			c0,5.487-6.889,9.935-12.376,9.935H243.931c-5.487,0-9.935-6.877-9.935-12.364V187.488
			C233.996,182.001,238.444,175.124,243.931,175.124z"/>
		<path style="opacity:0.1626;fill:#868585;" d="M244.297,175.551H976.93c5.434,0,9.839,7.031,9.839,12.465v662.88
			c0,5.434-6.975,9.839-12.409,9.839H244.297c-5.434,0-9.839-6.962-9.839-12.396V187.948
			C234.458,182.514,238.863,175.551,244.297,175.551z"/>
		<path style="opacity:0.1707;fill:#858484;" d="M244.663,175.979h731.901c5.381,0,9.744,7.119,9.744,12.5v662.2
			c0,5.381-7.06,9.744-12.442,9.744H244.663c-5.381,0-9.744-7.047-9.744-12.429V188.408
			C234.919,183.027,239.282,175.979,244.663,175.979z"/>
		<path style="opacity:0.1789;fill:#848383;" d="M245.029,176.406h731.169c5.329,0,9.648,7.208,9.648,12.536v661.519
			c0,5.329-7.146,9.648-12.475,9.648H245.029c-5.329,0-9.648-7.132-9.648-12.461V188.868
			C235.381,183.539,239.7,176.406,245.029,176.406z"/>
		<path style="opacity:0.187;fill:#838282;" d="M245.395,176.834h730.437c5.276,0,9.553,7.296,9.553,12.572v660.838
			c0,5.276-7.232,9.553-12.508,9.553H245.395c-5.276,0-9.553-7.217-9.553-12.493V189.328
			C235.842,184.052,240.119,176.834,245.395,176.834z"/>
		<path style="opacity:0.1951;fill:#828181;" d="M245.761,177.262h729.705c5.223,0,9.457,7.384,9.457,12.608v660.157
			c0,5.223-7.317,9.457-12.541,9.457H245.761c-5.223,0-9.457-7.302-9.457-12.525v-657.17
			C236.304,184.565,240.538,177.262,245.761,177.262z"/>
		<path style="opacity:0.2033;fill:#818080;" d="M246.127,177.689H975.1c5.17,0,9.362,7.473,9.362,12.643v659.476
			c0,5.17-7.403,9.362-12.574,9.362H246.127c-5.17,0-9.362-7.387-9.362-12.558V190.248
			C236.765,185.077,240.957,177.689,246.127,177.689z"/>
		<path style="opacity:0.2114;fill:#807F7F;" d="M246.493,178.117h728.241c5.118,0,9.266,7.562,9.266,12.679V849.59
			c0,5.118-7.489,9.266-12.606,9.266H246.493c-5.118,0-9.266-7.473-9.266-12.59V190.708
			C237.227,185.59,241.375,178.117,246.493,178.117z"/>
		<path style="opacity:0.2195;fill:#7F7E7E;" d="M246.859,178.544h727.509c5.065,0,9.171,7.65,9.171,12.715v658.114
			c0,5.065-7.575,9.171-12.639,9.171H246.859c-5.065,0-9.171-7.557-9.171-12.622V191.167
			C237.688,186.103,241.794,178.544,246.859,178.544z"/>
		<path style="opacity:0.2276;fill:#7E7D7D;" d="M247.225,178.972h726.777c5.012,0,9.075,7.739,9.075,12.751v657.433
			c0,5.012-7.66,9.075-12.672,9.075h-723.18c-5.012,0-9.075-7.643-9.075-12.655V191.627
			C238.15,186.615,242.213,178.972,247.225,178.972z"/>
		<path style="opacity:0.2358;fill:#7D7C7C;" d="M247.591,179.399h726.045c4.959,0,8.98,7.827,8.98,12.786v656.752
			c0,4.959-7.746,8.98-12.705,8.98h-722.32c-4.959,0-8.98-7.728-8.98-12.687V192.087
			C238.611,187.128,242.632,179.399,247.591,179.399z"/>
		<path style="opacity:0.2439;fill:#7C7B7B;" d="M247.957,179.827H973.27c4.907,0,8.884,7.915,8.884,12.822V848.72
			c0,4.907-7.832,8.884-12.738,8.884H247.957c-4.907,0-8.884-7.813-8.884-12.719V192.547
			C239.073,187.641,243.05,179.827,247.957,179.827z"/>
		<path style="opacity:0.252;fill:#7B7A7A;" d="M248.323,180.254h724.581c4.854,0,8.789,8.004,8.789,12.858v655.39
			c0,4.854-7.917,8.789-12.771,8.789H248.323c-4.854,0-8.789-7.898-8.789-12.752V193.007
			C239.534,188.153,243.469,180.254,248.323,180.254z"/>
		<path style="opacity:0.2602;fill:#7A7979;" d="M248.689,180.682h723.849c4.801,0,8.693,8.092,8.693,12.894v654.709
			c0,4.801-8.003,8.693-12.804,8.693H248.689c-4.801,0-8.693-7.983-8.693-12.784V193.467
			C239.996,188.666,243.888,180.682,248.689,180.682z"/>
		<path style="opacity:0.2683;fill:#797878;" d="M249.055,181.109h723.117c4.748,0,8.598,8.181,8.598,12.929v654.028
			c0,4.748-8.089,8.598-12.837,8.598H249.055c-4.748,0-8.598-8.068-8.598-12.816V193.927
			C240.457,189.179,244.307,181.109,249.055,181.109z"/>
		<path style="opacity:0.2764;fill:#787777;" d="M249.421,181.537h722.386c4.696,0,8.502,8.269,8.502,12.965v653.347
			c0,4.695-8.174,8.502-12.87,8.502H249.421c-4.696,0-8.502-8.153-8.502-12.849V194.387
			C240.919,189.691,244.725,181.537,249.421,181.537z"/>
		<path style="opacity:0.2846;fill:#777676;" d="M249.787,181.965H971.44c4.643,0,8.406,8.358,8.406,13.001v652.666
			c0,4.643-8.26,8.406-12.903,8.406H249.787c-4.643,0-8.407-8.238-8.407-12.881v-648.31
			C241.38,190.204,245.144,181.965,249.787,181.965z"/>
		<path style="opacity:0.2927;fill:#767575;" d="M250.153,182.392h720.922c4.59,0,8.311,8.446,8.311,13.036v651.985
			c0,4.59-8.346,8.311-12.936,8.311H250.153c-4.59,0-8.311-8.323-8.311-12.913V195.307
			C241.842,190.717,245.563,182.392,250.153,182.392z"/>
		<path style="opacity:0.3008;fill:#757474;" d="M250.519,182.82h720.19c4.537,0,8.215,8.535,8.215,13.072v651.304
			c0,4.537-8.432,8.215-12.969,8.215H250.519c-4.537,0-8.215-8.408-8.215-12.945V195.766
			C242.303,191.229,245.982,182.82,250.519,182.82z"/>
		<path style="opacity:0.3089;fill:#747373;" d="M250.885,183.247h719.458c4.485,0,8.12,8.623,8.12,13.108v650.623
			c0,4.484-8.517,8.12-13.002,8.12H250.885c-4.484,0-8.12-8.493-8.12-12.978V196.226C242.765,191.742,246.4,183.247,250.885,183.247
			z"/>
		<path style="opacity:0.3171;fill:#737272;" d="M251.251,183.675h718.726c4.432,0,8.024,8.712,8.024,13.144V846.76
			c0,4.432-8.603,8.024-13.035,8.024H251.251c-4.432,0-8.024-8.578-8.024-13.01V196.686
			C243.227,192.255,246.819,183.675,251.251,183.675z"/>
		<path style="opacity:0.3252;fill:#727171;" d="M251.617,184.102H969.61c4.379,0,7.929,8.8,7.929,13.179v649.261
			c0,4.379-8.689,7.929-13.068,7.929H251.617c-4.379,0-7.929-8.663-7.929-13.042V197.146
			C243.688,192.767,247.238,184.102,251.617,184.102z"/>
		<path style="opacity:0.3333;fill:#717070;" d="M251.983,184.53h717.262c4.326,0,7.833,8.889,7.833,13.215v648.58
			c0,4.326-8.774,7.833-13.101,7.833H251.983c-4.326,0-7.833-8.749-7.833-13.075V197.606
			C244.149,193.28,247.657,184.53,251.983,184.53z"/>
		<path style="opacity:0.3415;fill:#706F6F;" d="M252.349,184.958h716.53c4.273,0,7.738,8.977,7.738,13.251v647.899
			c0,4.273-8.86,7.738-13.134,7.738H252.349c-4.274,0-7.738-8.834-7.738-13.107V198.066
			C244.611,193.793,248.075,184.958,252.349,184.958z"/>
		<path style="opacity:0.3496;fill:#6F6E6E;" d="M252.715,185.385h715.798c4.221,0,7.642,9.066,7.642,13.287V845.89
			c0,4.221-8.946,7.642-13.166,7.642H252.715c-4.221,0-7.642-8.919-7.642-13.139V198.526
			C245.072,194.305,248.494,185.385,252.715,185.385z"/>
		<path style="opacity:0.3577;fill:#6F6D6D;" d="M253.081,185.813h715.066c4.168,0,7.547,9.154,7.547,13.322v646.537
			c0,4.168-9.031,7.547-13.199,7.547H253.081c-4.168,0-7.547-9.004-7.547-13.172V198.986
			C245.534,194.818,248.913,185.813,253.081,185.813z"/>
		<path style="opacity:0.3659;fill:#6E6C6C;" d="M253.447,186.24h714.334c4.115,0,7.451,9.243,7.451,13.358v645.856
			c0,4.115-9.117,7.451-13.232,7.451H253.447c-4.115,0-7.451-9.089-7.451-13.204V199.446
			C245.996,195.331,249.332,186.24,253.447,186.24z"/>
		<path style="opacity:0.374;fill:#6D6B6C;" d="M253.813,186.668h713.602c4.062,0,7.356,9.331,7.356,13.394v645.175
			c0,4.063-9.203,7.356-13.265,7.356H253.813c-4.063,0-7.356-9.174-7.356-13.236V199.906
			C246.457,195.843,249.75,186.668,253.813,186.668z"/>
		<path style="opacity:0.3821;fill:#6C6A6B;" d="M254.179,187.095h712.87c4.01,0,7.26,9.42,7.26,13.43v644.494
			c0,4.01-9.289,7.26-13.298,7.26H254.179c-4.01,0-7.26-9.259-7.26-13.269V200.366C246.919,196.356,250.169,187.095,254.179,187.095
			z"/>
		<path style="opacity:0.3902;fill:#6B696A;" d="M254.545,187.523h712.138c3.957,0,7.165,9.508,7.165,13.465v643.813
			c0,3.957-9.374,7.165-13.331,7.165H254.545c-3.957,0-7.165-9.344-7.165-13.301v-637.84
			C247.38,196.869,250.588,187.523,254.545,187.523z"/>
		<path style="opacity:0.3984;fill:#6A6869;" d="M254.911,187.951h711.406c3.904,0,7.069,9.597,7.069,13.501v643.132
			c0,3.904-9.46,7.069-13.364,7.069H254.911c-3.904,0-7.069-9.429-7.069-13.333V201.285
			C247.842,197.381,251.007,187.951,254.911,187.951z"/>
		<path style="opacity:0.4065;fill:#696768;" d="M255.277,188.378h710.674c3.851,0,6.974,9.685,6.974,13.537v642.451
			c0,3.851-9.546,6.974-13.397,6.974h-704.25c-3.851,0-6.974-9.514-6.974-13.365V201.745
			C248.303,197.894,251.425,188.378,255.277,188.378z"/>
		<path style="opacity:0.4146;fill:#686667;" d="M255.643,188.806h709.942c3.799,0,6.878,9.774,6.878,13.572v641.77
			c0,3.799-9.631,6.878-13.43,6.878h-703.39c-3.799,0-6.878-9.599-6.878-13.398V202.205
			C248.765,198.407,251.844,188.806,255.643,188.806z"/>
		<path style="opacity:0.4228;fill:#676566;" d="M256.009,189.233h709.21c3.746,0,6.782,9.862,6.782,13.608v641.089
			c0,3.746-9.717,6.782-13.463,6.782H256.009c-3.746,0-6.783-9.684-6.783-13.43V202.665
			C249.226,198.919,252.263,189.233,256.009,189.233z"/>
		<path style="opacity:0.4309;fill:#666465;" d="M256.375,189.661h708.478c3.693,0,6.687,9.951,6.687,13.644v640.408
			c0,3.693-9.803,6.687-13.496,6.687H256.375c-3.693,0-6.687-9.769-6.687-13.463V203.125
			C249.688,199.432,252.681,189.661,256.375,189.661z"/>
		<path style="opacity:0.439;fill:#656364;" d="M256.741,190.088h707.746c3.64,0,6.591,10.039,6.591,13.68v639.727
			c0,3.64-9.888,6.591-13.529,6.591H256.741c-3.64,0-6.591-9.854-6.591-13.495V203.585
			C250.149,199.945,253.1,190.088,256.741,190.088z"/>
		<path style="opacity:0.4472;fill:#646263;" d="M257.107,190.516h707.014c3.588,0,6.496,10.128,6.496,13.715v639.046
			c0,3.588-9.974,6.496-13.562,6.496H257.107c-3.588,0-6.496-9.94-6.496-13.527V204.045
			C250.611,200.457,253.519,190.516,257.107,190.516z"/>
		<path style="opacity:0.4553;fill:#636162;" d="M257.473,190.943h706.282c3.535,0,6.4,10.216,6.4,13.751V843.06
			c0,3.535-10.06,6.401-13.595,6.401H257.473c-3.535,0-6.4-10.025-6.4-13.559V204.505
			C251.072,200.97,253.938,190.943,257.473,190.943z"/>
		<path style="opacity:0.4634;fill:#626061;" d="M257.839,191.371h705.55c3.482,0,6.305,10.305,6.305,13.787v637.684
			c0,3.482-10.146,6.305-13.628,6.305H257.839c-3.482,0-6.305-10.11-6.305-13.592V204.965
			C251.534,201.483,254.356,191.371,257.839,191.371z"/>
		<path style="opacity:0.4715;fill:#615F60;" d="M258.205,191.798h704.818c3.429,0,6.209,10.393,6.209,13.823v637.003
			c0,3.429-10.231,6.209-13.661,6.209H258.205c-3.429,0-6.209-10.195-6.209-13.624V205.425
			C251.995,201.995,254.775,191.798,258.205,191.798z"/>
		<path style="opacity:0.4797;fill:#605E5F;" d="M258.571,192.226h704.086c3.377,0,6.114,10.482,6.114,13.858v636.322
			c0,3.377-10.317,6.114-13.694,6.114H258.571c-3.377,0-6.114-10.28-6.114-13.656v-628.98
			C252.457,202.508,255.194,192.226,258.571,192.226z"/>
		<path style="opacity:0.4878;fill:#5F5D5E;" d="M258.937,192.654h703.354c3.324,0,6.018,10.57,6.018,13.894v635.641
			c0,3.324-10.403,6.018-13.727,6.018H258.937c-3.324,0-6.018-10.365-6.018-13.689V206.344
			C252.918,203.021,255.613,192.654,258.937,192.654z"/>
		<path style="opacity:0.4959;fill:#5E5C5D;" d="M259.303,193.081h702.622c3.271,0,5.923,10.659,5.923,13.93v634.961
			c0,3.271-10.488,5.923-13.76,5.923H259.303c-3.271,0-5.923-10.45-5.923-13.721V206.804
			C253.38,203.533,256.031,193.081,259.303,193.081z"/>
		<path style="opacity:0.5041;fill:#5D5B5C;" d="M259.668,193.509h701.89c3.218,0,5.827,10.747,5.827,13.966v634.28
			c0,3.218-10.574,5.827-13.792,5.827H259.668c-3.218,0-5.827-10.535-5.827-13.753V207.264
			C253.841,204.046,256.45,193.509,259.668,193.509z"/>
		<path style="opacity:0.5122;fill:#5C5A5B;" d="M260.034,193.936h701.158c3.166,0,5.732,10.836,5.732,14.001v633.599
			c0,3.166-10.66,5.732-13.825,5.732H260.034c-3.165,0-5.732-10.62-5.732-13.786V207.724
			C254.303,204.559,256.869,193.936,260.034,193.936z"/>
		<path style="opacity:0.5203;fill:#5B595A;" d="M260.4,194.364h700.426c3.113,0,5.636,10.924,5.636,14.037v632.918
			c0,3.113-10.746,5.636-13.858,5.636H260.4c-3.113,0-5.636-10.705-5.636-13.818V208.184
			C254.764,205.071,257.288,194.364,260.4,194.364z"/>
		<path style="opacity:0.5285;fill:#5A5859;" d="M260.766,194.791h699.694c3.06,0,5.541,11.013,5.541,14.073v632.237
			c0,3.06-10.831,5.541-13.891,5.541H260.766c-3.06,0-5.541-10.79-5.541-13.85V208.644
			C255.226,205.584,257.706,194.791,260.766,194.791z"/>
		<path style="opacity:0.5366;fill:#595758;" d="M261.133,195.219h698.962c3.007,0,5.445,11.101,5.445,14.109v631.556
			c0,3.007-10.917,5.445-13.924,5.445H261.133c-3.007,0-5.445-10.875-5.445-13.883V209.104
			C255.687,206.097,258.125,195.219,261.133,195.219z"/>
		<path style="opacity:0.5447;fill:#585657;" d="M261.499,195.647h698.23c2.954,0,5.35,11.19,5.35,14.144v630.875
			c0,2.954-11.003,5.35-13.957,5.35H261.499c-2.954,0-5.35-10.96-5.35-13.915V209.564
			C256.149,206.609,258.544,195.647,261.499,195.647z"/>
		<path style="opacity:0.5528;fill:#575556;" d="M261.865,196.074h697.498c2.902,0,5.254,11.278,5.254,14.18v630.194
			c0,2.902-11.088,5.254-13.99,5.254H261.865c-2.902,0-5.254-11.045-5.254-13.947V210.024
			C256.61,207.122,258.963,196.074,261.865,196.074z"/>
		<path style="opacity:0.561;fill:#565455;" d="M262.23,196.502h696.766c2.849,0,5.159,11.367,5.159,14.216V840.23
			c0,2.849-11.174,5.159-14.023,5.159H262.23c-2.849,0-5.159-11.13-5.159-13.979V210.484
			C257.072,207.635,259.382,196.502,262.23,196.502z"/>
		<path style="opacity:0.5691;fill:#555354;" d="M262.596,196.929h696.034c2.796,0,5.063,11.455,5.063,14.251v628.832
			c0,2.796-11.26,5.063-14.056,5.063H262.596c-2.796,0-5.063-11.215-5.063-14.012v-620.12
			C257.533,208.147,259.8,196.929,262.596,196.929z"/>
		<path style="opacity:0.5772;fill:#545253;" d="M262.962,197.357h695.302c2.743,0,4.967,11.544,4.967,14.287v628.151
			c0,2.743-11.345,4.967-14.089,4.967H262.962c-2.743,0-4.967-11.301-4.967-14.044V211.403
			C257.995,208.66,260.219,197.357,262.962,197.357z"/>
		<path style="opacity:0.5854;fill:#535152;" d="M263.328,197.784h694.571c2.691,0,4.872,11.632,4.872,14.323v627.47
			c0,2.691-11.431,4.872-14.122,4.872H263.328c-2.691,0-4.872-11.386-4.872-14.076V211.863
			C258.456,209.173,260.638,197.784,263.328,197.784z"/>
		<path style="opacity:0.5935;fill:#535051;" d="M263.694,198.212h693.839c2.638,0,4.776,11.721,4.776,14.359v626.789
			c0,2.638-11.517,4.776-14.155,4.776h-684.46c-2.638,0-4.776-11.471-4.776-14.109V212.323
			C258.918,209.685,261.056,198.212,263.694,198.212z"/>
		<path style="opacity:0.6016;fill:#524F50;" d="M264.06,198.639h693.107c2.585,0,4.681,11.809,4.681,14.394v626.108
			c0,2.585-11.603,4.681-14.188,4.681h-683.6c-2.585,0-4.681-11.556-4.681-14.141V212.783
			C259.379,210.198,261.475,198.639,264.06,198.639z"/>
		<path style="opacity:0.6098;fill:#514E4F;" d="M264.426,199.067h692.375c2.532,0,4.585,11.898,4.585,14.43v625.427
			c0,2.532-11.688,4.585-14.221,4.585H264.426c-2.533,0-4.585-11.641-4.585-14.173V213.243
			C259.841,210.71,261.894,199.067,264.426,199.067z"/>
		<path style="opacity:0.6179;fill:#504D4E;" d="M264.792,199.495h691.643c2.48,0,4.49,11.986,4.49,14.466v624.746
			c0,2.48-11.774,4.49-14.254,4.49H264.792c-2.48,0-4.49-11.726-4.49-14.206V213.703
			C260.302,211.223,262.313,199.495,264.792,199.495z"/>
		<path style="opacity:0.626;fill:#4F4C4D;" d="M265.158,199.922h690.911c2.427,0,4.394,12.075,4.394,14.502v624.065
			c0,2.427-11.86,4.394-14.286,4.394H265.158c-2.427,0-4.394-11.811-4.394-14.238V214.163
			C260.764,211.736,262.731,199.922,265.158,199.922z"/>
		<path style="opacity:0.6341;fill:#4E4B4C;" d="M265.524,200.35h690.179c2.374,0,4.299,12.163,4.299,14.537v623.384
			c0,2.374-11.945,4.299-14.319,4.299H265.524c-2.374,0-4.299-11.896-4.299-14.27V214.623
			C261.226,212.249,263.15,200.35,265.524,200.35z"/>
		<path style="opacity:0.6423;fill:#4D4A4B;" d="M265.89,200.777h689.447c2.321,0,4.203,12.252,4.203,14.573v622.703
			c0,2.321-12.031,4.203-14.352,4.203H265.89c-2.321,0-4.203-11.981-4.203-14.302V215.083
			C261.687,212.761,263.569,200.777,265.89,200.777z"/>
		<path style="opacity:0.6504;fill:#4C494A;" d="M266.256,201.205h688.715c2.269,0,4.108,12.34,4.108,14.609v622.022
			c0,2.269-12.117,4.108-14.385,4.108H266.256c-2.269,0-4.108-12.066-4.108-14.335V215.542
			C262.149,213.274,263.988,201.205,266.256,201.205z"/>
		<path style="opacity:0.6585;fill:#4B4849;" d="M266.622,201.632h687.983c2.216,0,4.012,12.429,4.012,14.645v621.341
			c0,2.216-12.202,4.012-14.418,4.012H266.622c-2.216,0-4.012-12.151-4.012-14.367V216.002
			C262.61,213.786,264.406,201.632,266.622,201.632z"/>
		<path style="opacity:0.6667;fill:#4A4748;" d="M266.988,202.06h687.251c2.163,0,3.917,12.517,3.917,14.68V837.4
			c0,2.163-12.288,3.917-14.451,3.917H266.988c-2.163,0-3.917-12.236-3.917-14.399V216.462
			C263.072,214.299,264.825,202.06,266.988,202.06z"/>
		<path style="opacity:0.6748;fill:#494647;" d="M267.354,202.488h686.519c2.11,0,3.821,12.606,3.821,14.716v619.979
			c0,2.11-12.374,3.821-14.484,3.821H267.354c-2.11,0-3.821-12.321-3.821-14.432v-609.65
			C263.533,214.812,265.244,202.488,267.354,202.488z"/>
		<path style="opacity:0.6829;fill:#484546;" d="M267.72,202.915h685.787c2.058,0,3.726,12.694,3.726,14.752v619.298
			c0,2.058-12.459,3.726-14.517,3.726H267.72c-2.058,0-3.726-12.406-3.726-14.464V217.382
			C263.995,215.324,265.663,202.915,267.72,202.915z"/>
		<path style="opacity:0.6911;fill:#474445;" d="M268.086,203.343h685.055c2.005,0,3.63,12.783,3.63,14.788v618.617
			c0,2.005-12.545,3.63-14.55,3.63H268.086c-2.005,0-3.63-12.492-3.63-14.496V217.842
			C264.456,215.837,266.081,203.343,268.086,203.343z"/>
		<path style="opacity:0.6992;fill:#464344;" d="M268.452,203.77h684.323c1.952,0,3.535,12.871,3.535,14.823V836.53
			c0,1.952-12.631,3.534-14.583,3.534H268.452c-1.952,0-3.534-12.577-3.534-14.529V218.302
			C264.918,216.35,266.5,203.77,268.452,203.77z"/>
		<path style="opacity:0.7073;fill:#454243;" d="M268.818,204.198h683.591c1.899,0,3.439,12.96,3.439,14.859v617.255
			c0,1.899-12.717,3.439-14.616,3.439H268.818c-1.899,0-3.439-12.662-3.439-14.561V218.762
			C265.379,216.863,266.919,204.198,268.818,204.198z"/>
		<path style="opacity:0.7154;fill:#444142;" d="M269.184,204.625h682.859c1.846,0,3.344,13.048,3.344,14.895v616.574
			c0,1.847-12.802,3.344-14.649,3.344H269.184c-1.847,0-3.344-12.747-3.344-14.593V219.222
			C265.841,217.375,267.338,204.625,269.184,204.625z"/>
		<path style="opacity:0.7236;fill:#434041;" d="M269.55,205.053h682.127c1.794,0,3.248,13.137,3.248,14.93v615.893
			c0,1.794-12.888,3.248-14.682,3.248H269.55c-1.794,0-3.248-12.832-3.248-14.626V219.682
			C266.302,217.888,267.756,205.053,269.55,205.053z"/>
		<path style="opacity:0.7317;fill:#423F40;" d="M269.916,205.48h681.395c1.741,0,3.152,13.225,3.152,14.966v615.212
			c0,1.741-12.974,3.152-14.715,3.152H269.916c-1.741,0-3.152-12.917-3.152-14.658V220.142
			C266.764,218.4,268.175,205.48,269.916,205.48z"/>
		<path style="opacity:0.7398;fill:#413E3F;" d="M270.282,205.908h680.663c1.688,0,3.057,13.314,3.057,15.002v614.531
			c0,1.688-13.059,3.057-14.748,3.057H270.282c-1.688,0-3.057-13.002-3.057-14.69V220.602
			C267.225,218.913,268.594,205.908,270.282,205.908z"/>
		<path style="opacity:0.748;fill:#403D3E;" d="M270.648,206.336h679.931c1.635,0,2.961,13.402,2.961,15.038v613.85
			c0,1.635-13.145,2.961-14.781,2.961H270.648c-1.635,0-2.961-13.087-2.961-14.723V221.061
			C267.687,219.426,269.013,206.336,270.648,206.336z"/>
		<path style="opacity:0.7561;fill:#3F3C3D;" d="M271.014,206.763h679.199c1.583,0,2.866,13.491,2.866,15.073v613.169
			c0,1.583-13.231,2.866-14.814,2.866H271.014c-1.583,0-2.866-13.172-2.866-14.755V221.521
			C268.148,219.939,269.431,206.763,271.014,206.763z"/>
		<path style="opacity:0.7642;fill:#3E3B3C;" d="M271.38,207.191h678.467c1.53,0,2.77,13.579,2.77,15.109v612.488
			c0,1.53-13.316,2.77-14.846,2.77H271.38c-1.53,0-2.77-13.257-2.77-14.787v-600.79C268.61,220.451,269.85,207.191,271.38,207.191z"
			/>
		<path style="opacity:0.7724;fill:#3D3A3B;" d="M271.746,207.618h677.735c1.477,0,2.675,13.668,2.675,15.145V834.57
			c0,1.477-13.402,2.675-14.88,2.675h-665.53c-1.477,0-2.675-13.342-2.675-14.819V222.441
			C269.071,220.964,270.269,207.618,271.746,207.618z"/>
		<path style="opacity:0.7805;fill:#3C393A;" d="M272.112,208.046h677.003c1.424,0,2.579,13.756,2.579,15.181v611.126
			c0,1.424-13.488,2.579-14.912,2.579h-664.67c-1.424,0-2.579-13.427-2.579-14.852V222.901
			C269.533,221.477,270.688,208.046,272.112,208.046z"/>
		<path style="opacity:0.7886;fill:#3B3839;" d="M272.478,208.473h676.271c1.372,0,2.484,13.845,2.484,15.216v610.445
			c0,1.372-13.574,2.484-14.945,2.484h-663.81c-1.372,0-2.484-13.512-2.484-14.884V223.361
			C269.994,221.989,271.106,208.473,272.478,208.473z"/>
		<path style="opacity:0.7967;fill:#3A3738;" d="M272.844,208.901h675.539c1.319,0,2.388,13.933,2.388,15.252v609.764
			c0,1.319-13.659,2.388-14.978,2.388H272.844c-1.319,0-2.388-13.597-2.388-14.916V223.821
			C270.456,222.502,271.525,208.901,272.844,208.901z"/>
		<path style="opacity:0.8049;fill:#393637;" d="M273.21,209.329h674.807c1.266,0,2.293,14.022,2.293,15.288V833.7
			c0,1.266-13.745,2.293-15.011,2.293H273.21c-1.266,0-2.293-13.682-2.293-14.949V224.281
			C270.917,223.014,271.944,209.329,273.21,209.329z"/>
		<path style="opacity:0.813;fill:#383536;" d="M273.576,209.756h674.075c1.213,0,2.197,14.11,2.197,15.324v608.403
			c0,1.213-13.831,2.197-15.044,2.197H273.576c-1.213,0-2.197-13.768-2.197-14.981V224.741
			C271.379,223.527,272.363,209.756,273.576,209.756z"/>
		<path style="opacity:0.8211;fill:#383435;" d="M273.942,210.184h673.343c1.161,0,2.102,14.199,2.102,15.359v607.721
			c0,1.161-13.916,2.102-15.077,2.102H273.942c-1.161,0-2.102-13.853-2.102-15.013V225.201
			C271.84,224.04,272.781,210.184,273.942,210.184z"/>
		<path style="opacity:0.8293;fill:#373334;" d="M274.308,210.611h672.611c1.108,0,2.006,14.287,2.006,15.395v607.041
			c0,1.108-14.002,2.006-15.11,2.006H274.308c-1.108,0-2.006-13.938-2.006-15.046V225.66
			C272.302,224.553,273.2,210.611,274.308,210.611z"/>
		<path style="opacity:0.8374;fill:#363233;" d="M274.674,211.039h671.879c1.055,0,1.91,14.376,1.91,15.431v606.359
			c0,1.055-14.088,1.911-15.143,1.911H274.674c-1.055,0-1.911-14.023-1.911-15.078V226.12
			C272.763,225.065,273.619,211.039,274.674,211.039z"/>
		<path style="opacity:0.8455;fill:#353132;" d="M275.04,211.466h671.147c1.002,0,1.815,14.464,1.815,15.467v605.679
			c0,1.002-14.174,1.815-15.176,1.815H275.04c-1.002,0-1.815-14.108-1.815-15.11V226.58
			C273.225,225.578,274.038,211.466,275.04,211.466z"/>
		<path style="opacity:0.8537;fill:#343031;" d="M275.406,211.894h670.415c0.95,0,1.72,14.552,1.72,15.502v604.998
			c0,0.95-14.259,1.72-15.209,1.72H275.406c-0.95,0-1.72-14.193-1.72-15.143V227.04C273.686,226.09,274.456,211.894,275.406,211.894
			z"/>
		<path style="opacity:0.8618;fill:#332F30;" d="M275.772,212.321h669.683c0.897,0,1.624,14.641,1.624,15.538v604.317
			c0,0.897-14.345,1.624-15.242,1.624H275.772c-0.897,0-1.624-14.278-1.624-15.175V227.5
			C274.148,226.603,274.875,212.321,275.772,212.321z"/>
		<path style="opacity:0.8699;fill:#322E2F;" d="M276.138,212.749h668.951c0.844,0,1.529,14.73,1.529,15.574v603.636
			c0,0.844-14.431,1.529-15.275,1.529H276.138c-0.844,0-1.529-14.363-1.529-15.207V227.96
			C274.609,227.116,275.294,212.749,276.138,212.749z"/>
		<path style="opacity:0.878;fill:#312D2E;" d="M276.504,213.176h668.219c0.791,0,1.433,14.818,1.433,15.609v602.955
			c0,0.791-14.516,1.433-15.308,1.433H276.504c-0.791,0-1.433-14.448-1.433-15.24V228.42
			C275.071,227.628,275.713,213.176,276.504,213.176z"/>
		<path style="opacity:0.8862;fill:#302C2D;" d="M276.87,213.604h667.487c0.739,0,1.337,14.907,1.337,15.645v602.274
			c0,0.739-14.602,1.337-15.341,1.337H276.87c-0.739,0-1.337-14.533-1.337-15.272V228.88
			C275.533,228.141,276.131,213.604,276.87,213.604z"/>
		<path style="opacity:0.8943;fill:#2F2B2C;" d="M277.236,214.032h666.756c0.686,0,1.242,14.995,1.242,15.681v601.593
			c0,0.686-14.688,1.242-15.373,1.242H277.236c-0.686,0-1.242-14.618-1.242-15.304V229.34
			C275.994,228.654,276.55,214.032,277.236,214.032z"/>
		<path style="opacity:0.9024;fill:#2E2A2B;" d="M277.602,214.459h666.024c0.633,0,1.146,15.084,1.146,15.717v600.912
			c0,0.633-14.773,1.146-15.406,1.146H277.602c-0.633,0-1.146-14.703-1.146-15.336V229.8
			C276.456,229.167,276.969,214.459,277.602,214.459z"/>
		<path style="opacity:0.9106;fill:#2D292A;" d="M277.968,214.887h665.292c0.58,0,1.051,15.172,1.051,15.752V830.87
			c0,0.58-14.859,1.051-15.44,1.051H277.968c-0.58,0-1.051-14.788-1.051-15.369V230.26
			C276.917,229.679,277.387,214.887,277.968,214.887z"/>
		<path style="opacity:0.9187;fill:#2C2929;" d="M278.334,215.314h664.56c0.528,0,0.955,15.261,0.955,15.788v599.55
			c0,0.528-14.945,0.955-15.472,0.955H278.334c-0.528,0-0.955-14.873-0.955-15.401V230.719
			C277.379,230.192,277.806,215.314,278.334,215.314z"/>
		<path style="opacity:0.9268;fill:#2B2828;" d="M278.7,215.742h663.828c0.475,0,0.86,15.349,0.86,15.824v598.869
			c0,0.475-15.031,0.86-15.505,0.86H278.7c-0.475,0-0.86-14.959-0.86-15.433V231.179C277.84,230.704,278.225,215.742,278.7,215.742z
			"/>
		<path style="opacity:0.935;fill:#2A2727;" d="M279.066,216.169h663.096c0.422,0,0.764,15.438,0.764,15.86v598.188
			c0,0.422-15.116,0.764-15.538,0.764H279.066c-0.422,0-0.764-15.044-0.764-15.466V231.639
			C278.302,231.217,278.644,216.169,279.066,216.169z"/>
		<path style="opacity:0.9431;fill:#292626;" d="M279.432,216.597h662.364c0.369,0,0.669,15.526,0.669,15.895v597.507
			c0,0.369-15.202,0.669-15.571,0.669H279.432c-0.369,0-0.669-15.129-0.669-15.498V232.099
			C278.763,231.73,279.063,216.597,279.432,216.597z"/>
		<path style="opacity:0.9512;fill:#282525;" d="M279.798,217.025H941.43c0.317,0,0.573,15.615,0.573,15.931v596.826
			c0,0.317-15.288,0.573-15.604,0.573H279.798c-0.316,0-0.573-15.214-0.573-15.53V232.559
			C279.225,232.242,279.481,217.025,279.798,217.025z"/>
		<path style="opacity:0.9593;fill:#272424;" d="M280.164,217.452h660.9c0.264,0,0.478,15.703,0.478,15.967v596.145
			c0,0.264-15.373,0.478-15.637,0.478h-645.74c-0.264,0-0.478-15.299-0.478-15.563v-581.46
			C279.686,232.755,279.9,217.452,280.164,217.452z"/>
		<path style="opacity:0.9675;fill:#262323;" d="M280.53,217.88h660.168c0.211,0,0.382,15.792,0.382,16.003v595.464
			c0,0.211-15.459,0.382-15.67,0.382H280.53c-0.211,0-0.382-15.384-0.382-15.595V233.479
			C280.148,233.268,280.319,217.88,280.53,217.88z"/>
		<path style="opacity:0.9756;fill:#252222;" d="M280.896,218.307h659.436c0.158,0,0.287,15.88,0.287,16.038v594.783
			c0,0.158-15.545,0.286-15.703,0.286H280.896c-0.158,0-0.287-15.469-0.287-15.627V233.939
			C280.609,233.781,280.737,218.307,280.896,218.307z"/>
		<path style="opacity:0.9837;fill:#242121;" d="M281.262,218.735h658.704c0.106,0,0.191,15.968,0.191,16.074v594.102
			c0,0.105-15.63,0.191-15.736,0.191H281.262c-0.106,0-0.191-15.554-0.191-15.659V234.399
			C281.071,234.293,281.156,218.735,281.262,218.735z"/>
		<path style="opacity:0.9919;fill:#232020;" d="M281.628,219.162H939.6c0.053,0,0.096,16.057,0.096,16.11v593.421
			c0,0.053-15.716,0.095-15.769,0.095H281.628c-0.053,0-0.096-15.639-0.096-15.692V234.859
			C281.532,234.806,281.575,219.162,281.628,219.162z"/>
		<rect x="281.994" y="219.59" width="657.24" height="608.885"/>
	</g>
	
		<rect x="230.429" y="155.799" transform="matrix(-1 -1.224647e-16 1.224647e-16 -1 1186 993.09)" style="fill:#FFFFFF;" width="725.143" height="681.492"/>
	<g>
		<path style="fill:#909999;" d="M472.773,617.204c3.781-0.644,9.092-1.126,16.574-1.126c7.563,0,12.954,1.448,16.575,4.345
			c3.46,2.735,5.793,7.241,5.793,12.552c0,5.311-1.771,9.815-4.989,12.873c-4.184,3.942-10.379,5.713-17.621,5.713
			c-1.609,0-3.058-0.08-4.184-0.241v19.391h-12.15V617.204z M484.923,641.825c1.046,0.241,2.333,0.321,4.103,0.321
			c6.518,0,10.54-3.299,10.54-8.851c0-4.988-3.46-7.965-9.575-7.965c-2.494,0-4.184,0.241-5.069,0.482V641.825z"/>
		<path style="fill:#909999;" d="M531.833,616.481v20.839h20.195v-20.839h12.23v54.229h-12.23v-22.69h-20.195v22.69h-12.31v-54.229
			H531.833z"/>
		<path style="fill:#909999;" d="M624.606,643.032c0,17.781-10.782,28.563-26.632,28.563c-16.092,0-25.506-12.149-25.506-27.598
			c0-16.253,10.379-28.402,26.391-28.402C615.515,615.595,624.606,628.066,624.606,643.032z M585.422,643.756
			c0,10.621,4.989,18.103,13.195,18.103c8.288,0,13.035-7.885,13.035-18.425c0-9.736-4.667-18.103-13.115-18.103
			C590.25,625.331,585.422,633.216,585.422,643.756z"/>
		<path style="fill:#909999;" d="M640.863,626.779H626.3v-10.299h41.678v10.299h-14.805v43.931h-12.31V626.779z"/>
		<path style="fill:#909999;" d="M721.808,643.032c0,17.781-10.782,28.563-26.633,28.563c-16.092,0-25.505-12.149-25.505-27.598
			c0-16.253,10.379-28.402,26.391-28.402C712.716,615.595,721.808,628.066,721.808,643.032z M682.624,643.756
			c0,10.621,4.988,18.103,13.195,18.103c8.287,0,13.034-7.885,13.034-18.425c0-9.736-4.667-18.103-13.115-18.103
			C687.451,625.331,682.624,633.216,682.624,643.756z"/>
	</g>
	<g>
		<path style="fill:#909999;" d="M411.186,745.32c-1.798,0.938-5.785,2.188-10.866,2.188c-11.413,0-18.839-7.738-18.839-19.308
			c0-11.647,7.973-20.09,20.324-20.09c4.065,0,7.661,1.016,9.537,1.954l-1.563,5.315c-1.642-0.938-4.222-1.798-7.974-1.798
			c-8.677,0-13.367,6.41-13.367,14.306c0,8.755,5.628,14.148,13.133,14.148c3.908,0,6.488-1.016,8.442-1.876L411.186,745.32z"/>
		<path style="fill:#909999;" d="M453.008,727.497c0,13.993-9.693,20.091-18.839,20.091c-10.24,0-18.135-7.505-18.135-19.465
			c0-12.664,8.286-20.09,18.761-20.09C445.66,708.033,453.008,715.929,453.008,727.497z M422.99,727.889
			c0,8.286,4.769,14.539,11.491,14.539c6.566,0,11.491-6.175,11.491-14.695c0-6.41-3.205-14.54-11.335-14.54
			C426.508,713.192,422.99,720.696,422.99,727.889z"/>
		<path style="fill:#909999;" d="M461.684,719.133c0-3.908-0.078-7.113-0.313-10.24h6.02l0.313,6.098h0.234
			c2.111-3.596,5.628-6.957,11.882-6.957c5.159,0,9.067,3.127,10.709,7.582h0.157c1.172-2.11,2.658-3.752,4.221-4.925
			c2.267-1.72,4.768-2.657,8.364-2.657c5.003,0,12.429,3.283,12.429,16.416v22.278h-6.723v-21.419
			c0-7.269-2.658-11.648-8.208-11.648c-3.909,0-6.957,2.893-8.13,6.254c-0.313,0.938-0.547,2.189-0.547,3.44v23.373h-6.723v-22.67
			c0-6.018-2.658-10.397-7.895-10.397c-4.299,0-7.426,3.44-8.52,6.879c-0.391,1.017-0.547,2.19-0.547,3.361v22.826h-6.723V719.133z"
			/>
		<path style="fill:#909999;" d="M534.539,698.262c0.078,2.345-1.642,4.221-4.378,4.221c-2.423,0-4.143-1.876-4.143-4.221
			c0-2.424,1.798-4.3,4.299-4.3C532.897,693.962,534.539,695.838,534.539,698.262z M526.878,746.727v-37.835h6.879v37.835H526.878z"
			/>
		<path style="fill:#909999;" d="M545.17,719.133c0-3.908-0.078-7.113-0.313-10.24h6.098l0.391,6.254h0.156
			c1.876-3.596,6.254-7.113,12.507-7.113c5.238,0,13.367,3.127,13.367,16.102v22.592h-6.879v-21.809
			c0-6.098-2.267-11.179-8.755-11.179c-4.534,0-8.052,3.205-9.224,7.035c-0.313,0.86-0.469,2.033-0.469,3.205v22.748h-6.879V719.133
			z"/>
		<path style="fill:#909999;" d="M621.15,708.893c-0.156,2.736-0.313,5.785-0.313,10.397v21.966c0,8.677-1.72,13.992-5.394,17.275
			c-3.674,3.439-8.99,4.534-13.758,4.534c-4.534,0-9.537-1.095-12.586-3.127l1.72-5.237c2.501,1.563,6.41,2.971,11.1,2.971
			c7.035,0,12.194-3.675,12.194-13.211v-4.222h-0.156c-2.11,3.517-6.176,6.332-12.038,6.332c-9.38,0-16.103-7.974-16.103-18.448
			c0-12.82,8.364-20.09,17.041-20.09c6.566,0,10.163,3.44,11.804,6.566h0.156l0.313-5.707H621.15z M614.037,723.823
			c0-1.172-0.078-2.188-0.391-3.127c-1.251-3.986-4.612-7.269-9.615-7.269c-6.566,0-11.256,5.55-11.256,14.306
			c0,7.426,3.752,13.602,11.178,13.602c4.221,0,8.052-2.658,9.537-7.035c0.391-1.173,0.547-2.502,0.547-3.675V723.823z"/>
		<path style="fill:#909999;" d="M647.884,739.692c2.032,1.329,5.628,2.735,9.067,2.735c5.003,0,7.349-2.501,7.349-5.628
			c0-3.283-1.954-5.081-7.036-6.957c-6.801-2.424-10.006-6.176-10.006-10.71c0-6.097,4.925-11.1,13.055-11.1
			c3.831,0,7.192,1.094,9.303,2.345l-1.72,5.003c-1.485-0.938-4.222-2.189-7.739-2.189c-4.065,0-6.332,2.345-6.332,5.159
			c0,3.127,2.268,4.534,7.192,6.41c6.566,2.501,9.928,5.784,9.928,11.413c0,6.644-5.159,11.334-14.149,11.334
			c-4.143,0-7.974-1.016-10.631-2.579L647.884,739.692z"/>
		<path style="fill:#909999;" d="M714.016,727.497c0,13.993-9.693,20.091-18.839,20.091c-10.24,0-18.136-7.505-18.136-19.465
			c0-12.664,8.286-20.09,18.761-20.09C706.668,708.033,714.016,715.929,714.016,727.497z M683.998,727.889
			c0,8.286,4.769,14.539,11.491,14.539c6.566,0,11.491-6.175,11.491-14.695c0-6.41-3.205-14.54-11.335-14.54
			C687.516,713.192,683.998,720.696,683.998,727.889z"/>
		<path style="fill:#909999;" d="M756.932,727.497c0,13.993-9.693,20.091-18.839,20.091c-10.24,0-18.136-7.505-18.136-19.465
			c0-12.664,8.286-20.09,18.761-20.09C749.584,708.033,756.932,715.929,756.932,727.497z M726.914,727.889
			c0,8.286,4.768,14.539,11.491,14.539c6.566,0,11.491-6.175,11.491-14.695c0-6.41-3.205-14.54-11.335-14.54
			C730.432,713.192,726.914,720.696,726.914,727.889z"/>
		<path style="fill:#909999;" d="M765.607,719.133c0-3.908-0.078-7.113-0.313-10.24h6.098l0.391,6.254h0.156
			c1.876-3.596,6.254-7.113,12.508-7.113c5.237,0,13.367,3.127,13.367,16.102v22.592h-6.879v-21.809
			c0-6.098-2.267-11.179-8.756-11.179c-4.533,0-8.051,3.205-9.224,7.035c-0.313,0.86-0.469,2.033-0.469,3.205v22.748h-6.88V719.133z
			"/>
	</g>
	<g>
		<rect x="395.853" y="249.124" style="fill:#969696;" width="389.93" height="330.103"/>
		<rect x="419.704" y="271.393" style="fill:#FFFFFF;" width="342.227" height="285.566"/>
		<g>
			<polygon style="fill:#969696;" points="508.347,468.427 419.704,560.897 596.991,560.897 			"/>
			<polygon style="fill:#969696;" points="653.002,407.404 544.072,560.897 761.932,560.897 			"/>
		</g>
		<circle style="fill:#969696;" cx="479.009" cy="327" r="40.514"/>
	</g>
</g>
</svg>
